<svg xmlns="http://www.w3.org/2000/svg" fill="none" viewBox="0 0 138 32"><path fill="#0D34B4" fill-rule="evenodd" d="M13.457 32V21.065c0-1.165.264-2.27.736-3.258a7.559 7.559 0 0 1-3.259.735H0v-5.085h10.934c.69 0 1.32-.285 1.779-.744.459-.458.744-1.089.744-1.778V0h5.085v10.934c0 1.165-.265 2.27-.736 3.259a7.557 7.557 0 0 1 3.259-.736h10.934v5.085H21.065c-.69 0-1.321.285-1.78.744a2.515 2.515 0 0 0-.743 1.78V32h-5.085Z" clip-rule="evenodd"/><path fill="url(#a)" fill-rule="evenodd" d="m6.484 2.888 7.732 7.732a7.58 7.58 0 0 1 2.215 5.373v.014a7.58 7.58 0 0 1-2.216 5.373l-7.731 7.732-3.597-3.597 7.732-7.731a2.526 2.526 0 0 0 .74-1.784 2.526 2.526 0 0 0-.74-1.784L2.887 6.485l3.597-3.597Z" clip-rule="evenodd"/><path fill="url(#b)" fill-rule="evenodd" d="M12.996 12.446c0 2.5-1.226 4.714-3.11 6.071l-.026.026-6.972 6.973 3.596 3.596 6.973-6.973.759-.759a7.518 7.518 0 0 0 1.783-2.835c.288-.819.432-1.678.432-2.538v-.014c0-.86-.144-1.72-.432-2.539a7.518 7.518 0 0 0-1.783-2.835l-.76-.759-2.149-2.149a7.446 7.446 0 0 1 1.69 4.667v.068Z" clip-rule="evenodd"/><path fill="url(#c)" fill-rule="evenodd" d="M12.996 12.446c0 2.5-1.226 4.714-3.11 6.071l-.026.026-6.972 6.973 3.596 3.596 6.973-6.973.759-.759a7.518 7.518 0 0 0 1.783-2.835c.288-.819.432-1.678.432-2.538v-.014c0-.86-.144-1.72-.432-2.539a7.518 7.518 0 0 0-1.783-2.835l-.76-.759-2.149-2.149a7.446 7.446 0 0 1 1.69 4.667v.068Z" clip-rule="evenodd"/><path fill="url(#d)" fill-rule="evenodd" d="m19.825 23.422 5.69 5.69 3.596-3.596-7.732-7.732A2.526 2.526 0 0 1 20.64 16a2.526 2.526 0 0 1 .74-1.784l.734-.733a7.468 7.468 0 0 0-3.11 6.14 7.447 7.447 0 0 0 1.688 4.666l-.866-.867Z" clip-rule="evenodd"/><path fill="url(#e)" fill-rule="evenodd" d="M19.002 19.554c0-2.5 1.227-4.714 3.111-6.071l.026-.026 6.972-6.973-3.596-3.596-6.973 6.973-.76.758A7.516 7.516 0 0 0 16 13.456a7.663 7.663 0 0 0-.431 2.538v.014c0 .86.144 1.72.431 2.538a7.518 7.518 0 0 0 1.784 2.835l.76.76 2.148 2.148a7.447 7.447 0 0 1-1.688-4.666v-.068Z" clip-rule="evenodd"/><path fill="#008BFF" fill-rule="evenodd" d="M116.402 6v20h10.746c6.092 0 10.851-4.065 10.851-9.963C137.999 10.195 133.24 6 127.148 6h-10.746Zm4.627 16.058V10.01h6.119c2.979 0 6.266 2.43 6.266 6.05 0 4.307-3.309 5.998-6.266 5.998h-6.119Z" clip-rule="evenodd"/><path fill="#008BFF" d="M64.019 26h4.634V13.321L75.239 26h4.705l6.153-12.679V26h4.63V6h-5.58L77.59 21.484 69.624 6H64.02v20ZM93.323 6h20.698v3.704H97.949v4.133h13.765v3.66H97.949v4.987h16.072V26H93.323V6Z"/><path fill="#0D34B4" fill-rule="evenodd" d="M39.999 6v20h10.746c6.092 0 10.85-4.065 10.85-9.963C61.596 10.195 56.838 6 50.746 6H40Zm4.627 16.058V10.01h6.12c2.978 0 6.265 2.43 6.265 6.05 0 4.307-3.31 5.998-6.266 5.998h-6.119Z" clip-rule="evenodd"/><defs><linearGradient id="a" x1=".538" x2="13.448" y1="6.335" y2="20.668" gradientUnits="userSpaceOnUse"><stop stop-color="#008BFF"/><stop offset="1" stop-color="#5FFFEC"/></linearGradient><linearGradient id="b" x1="2.601" x2="14.305" y1="21.759" y2="8.841" gradientUnits="userSpaceOnUse"><stop stop-color="#008BFF"/><stop offset="1" stop-color="#5FFFEC"/></linearGradient><linearGradient id="c" x1="2.601" x2="14.305" y1="21.759" y2="8.841" gradientUnits="userSpaceOnUse"><stop stop-color="#5FFFEC"/><stop offset="1" stop-color="#008BFF"/></linearGradient><linearGradient id="d" x1="20" x2="23.577" y1="15.428" y2="28.728" gradientUnits="userSpaceOnUse"><stop stop-color="#5FFFEC"/><stop offset="1" stop-color="#008BFF"/></linearGradient><linearGradient id="e" x1="15.281" x2="26.985" y1="16.936" y2="4.018" gradientUnits="userSpaceOnUse"><stop stop-color="#008BFF"/><stop offset="1" stop-color="#5FFFEC"/></linearGradient></defs><script xmlns=""/></svg>